<svg xmlns="http://www.w3.org/2000/svg" viewBox="0 0 512 512">
  <!-- 红色圆形背景 -->
  <circle cx="256" cy="256" r="256" fill="#DC2626"/>
  
  <!-- "china guide" 文字 -->
  <text x="256" y="150" font-family="Arial, sans-serif" font-size="68" font-weight="bold" fill="#FFFFFF" text-anchor="middle">china</text>
  <text x="256" y="215" font-family="Arial, sans-serif" font-size="68" font-weight="bold" fill="#FFFFFF" text-anchor="middle">guide</text>
  
  <!-- 旅行者剪影 -->
  <g transform="translate(256, 340)">
    <!-- 头部 -->
    <circle cx="0" cy="-50" r="18" fill="#FFFFFF"/>
    <!-- 身体 -->
    <path d="M-15,-32 L15,-32 L20,30 L-20,30 Z" fill="#FFFFFF"/>
    <!-- 腿 -->
    <path d="M-10,30 L-18,75 M10,30 L18,75" stroke="#FFFFFF" stroke-width="14" stroke-linecap="round"/>
    <!-- 手臂 -->
    <path d="M-15,-20 L-28,15 M15,-20 L28,15" stroke="#FFFFFF" stroke-width="12" stroke-linecap="round"/>
    <!-- 背包 -->
    <path d="M-18,-30 Q-32,-30 -32,-12 Q-32,5 -18,5" fill="#FFFFFF"/>
    <!-- 行李箱 -->
    <rect x="-45" y="35" width="28" height="40" rx="3" fill="#FFFFFF"/>
    <line x1="-31" y1="35" x2="-31" y2="75" stroke="#DC2626" stroke-width="2"/>
    <circle cx="-40" cy="78" r="3" fill="#FFFFFF"/>
    <circle cx="-22" cy="78" r="3" fill="#FFFFFF"/>
    <!-- 行李箱把手 -->
    <path d="M-40,35 L-40,28 L-22,28 L-22,35" stroke="#FFFFFF" stroke-width="3" fill="none"/>
  </g>
</svg>
